<svg width="82" height="78" viewBox="0 0 82 78" fill="none" xmlns="http://www.w3.org/2000/svg">
<circle cx="21.6086" cy="27" r="21.5" fill="#F4475C"/>
<path d="M71.7862 64.7191L71.7859 64.7193L57.7026 75.2794C56.1346 76.4963 54.25 77.1071 52.3617 77.1071C50.4736 77.1071 48.5749 76.4941 46.9973 75.2653L32.9306 64.7193L32.9302 64.7191C31.6504 63.7581 30.0615 63.2298 28.462 63.2298H25.7656C24.7705 63.2298 23.9631 62.4224 23.9631 61.4272C23.9631 60.4321 24.7705 59.6247 25.7656 59.6247H28.4643C30.8424 59.6247 33.1939 60.4076 35.0936 61.833L49.1812 72.3964L49.1911 72.4038L49.191 72.4039C51.0616 73.8634 53.6555 73.857 55.513 72.4166L55.5213 72.4102L55.5213 72.4103L69.6253 61.8329L69.6256 61.8326C69.8802 61.642 70.1425 61.4635 70.4115 61.2969L54.813 49.6007L52.1823 52.119C50.9873 53.3112 49.3585 53.9798 47.6627 53.9798C45.4639 53.9798 43.5393 52.8306 42.4231 51.2807C40.5966 48.7449 41.0024 45.119 43.2932 42.8308L43.3 42.824L43.3069 42.8175L49.8034 36.7006L48.0394 35.0941C48.0394 35.0941 48.0393 35.094 48.0392 35.0939C45.7797 33.0381 42.2193 32.6656 39.662 33.9474L39.6615 33.9477L34.3081 36.6255L34.308 36.6256C32.7797 37.3897 31.0712 37.7923 29.3639 37.7923H25.7656C24.7705 37.7923 23.9631 36.9849 23.9631 35.9897C23.9631 34.9946 24.7705 34.1872 25.7656 34.1872H29.3639C30.5122 34.1872 31.6667 33.9146 32.6941 33.402C32.6942 33.402 32.6943 33.402 32.6944 33.4019L38.0462 30.7248C38.0464 30.7248 38.0465 30.7247 38.0466 30.7246C39.5643 29.9622 41.2661 29.5622 42.9683 29.5622C45.7974 29.5622 48.4321 30.5801 50.4655 32.429L50.4661 32.4296L52.4333 34.2231L54.2058 32.5546L54.2059 32.5545C57.4996 29.455 62.6438 28.7067 66.6696 30.7246M71.7862 64.7191L72.022 33.4019L66.6696 30.7246M71.7862 64.7191C73.0661 63.7581 74.655 63.2298 76.2544 63.2298H78.9531C79.9483 63.2298 80.7556 62.4224 80.7556 61.4272C80.7556 60.4321 79.9483 59.6247 78.9531 59.6247H76.2544C75.631 59.6247 75.0106 59.6799 74.4011 59.785L57.452 47.0737M71.7862 64.7191L57.452 47.0737M66.6696 30.7246L66.3801 31.3023M66.6696 30.7246L66.6692 30.7243L66.3801 31.3023M66.3801 31.3023C62.5968 29.4061 57.7452 30.1114 54.6487 33.0251L71.7335 33.9802L66.3801 31.3023ZM57.452 47.0737L61.7875 42.9229L57.452 47.0737ZM70.4085 36.6256L70.4084 36.6255L65.0549 33.9477L65.0543 33.9474C62.3557 32.5938 58.8814 33.101 56.676 35.179L56.6758 35.1792L45.8075 45.4119C44.7409 46.4846 44.5862 48.1182 45.3472 49.1747L70.4085 36.6256ZM70.4085 36.6256C71.9368 37.3898 73.6476 37.7923 75.3526 37.7923H78.9508C79.946 37.7923 80.7533 36.9849 80.7533 35.9897C80.7533 34.9946 79.946 34.1872 78.9508 34.1872H75.3526C74.2044 34.1872 73.05 33.9147 72.0226 33.4022L70.4085 36.6256ZM49.6593 49.5419L49.6647 49.5366L59.2957 40.3173C59.2958 40.3172 59.2959 40.3171 59.296 40.317C60.0147 39.6274 61.1575 39.6538 61.8455 40.3742L61.8455 40.3743C62.5299 41.091 62.5095 42.2327 61.7881 42.9223L49.6593 49.5419ZM49.6593 49.5419L49.6539 49.5472M49.6593 49.5419L49.6539 49.5472M49.6539 49.5472C49.0707 50.1323 48.2546 50.4251 47.4278 50.3651M49.6539 49.5472L47.4278 50.3651M47.4278 50.3651C46.5913 50.2969 45.8564 49.8801 45.3473 49.1748L47.4278 50.3651Z" fill="#2A2B6B" stroke="#2A2B6B" stroke-width="1.29253"/>
</svg>
