<svg width="81" height="77" viewBox="0 0 81 77" fill="none" xmlns="http://www.w3.org/2000/svg">
<g id="Component 50">
<circle id="Switch" cx="21.6094" cy="27" r="21.5" fill="#F4475C"/>
<path id="Vector" d="M66.3437 58.4263L55.3724 68.2792L55.3722 68.2794C51.3103 71.9227 46.0698 73.9319 40.6149 73.9319H19.6375C18.8303 73.9319 18.1754 73.277 18.1754 72.4697C18.1754 71.6625 18.8303 71.0076 19.6375 71.0076H40.6149C45.3477 71.0076 49.8944 69.2667 53.4188 66.1034C53.4189 66.1034 53.4189 66.1034 53.4189 66.1034L64.7629 55.9198C65.7364 54.9389 65.8963 53.4046 65.1702 52.3942C64.6917 51.7311 63.9997 51.3368 63.2103 51.2723C62.4303 51.2193 61.6595 51.4937 61.1064 52.045L61.0996 52.0519L61.0924 52.0584L52.4806 59.9057C51.4696 60.9237 50.0667 61.558 48.517 61.558H38.2036C37.3964 61.558 36.7415 60.903 36.7415 60.0958C36.7415 59.2885 37.3964 58.6336 38.2036 58.6336H48.517C49.2197 58.6336 49.86 58.3591 50.3371 57.9113C50.3674 57.8772 50.4019 57.8407 50.4404 57.8048L50.448 57.7976L50.4481 57.7977L50.4703 57.778C50.9107 57.3031 51.1801 56.6683 51.1801 55.9704C51.1801 54.5026 49.9849 53.3073 48.517 53.3073H36.3225C31.2056 53.3073 26.3953 55.2984 22.774 58.9155L20.7016 61.0989C20.7011 61.0995 20.7006 61.1001 20.7 61.1006C20.1439 61.6961 19.214 61.7105 18.6334 61.157C18.0452 60.6024 18.0236 59.6757 18.5785 59.0915L20.6762 56.8825L20.6838 56.8744L20.6839 56.8745C24.8754 52.683 30.4242 50.385 36.3225 50.385H48.517C51.1325 50.385 53.3336 52.19 53.9391 54.6201L59.0815 49.9368C60.2067 48.8137 61.8008 48.223 63.4446 48.3609M66.3437 58.4263L63.4095 48.7903M66.3437 58.4263L66.36 58.459L66.783 58.037C68.7803 56.0441 69.1301 52.889 67.5441 50.6878M66.3437 58.4263L67.1945 50.9396M63.4446 48.3609C63.4449 48.3609 63.4452 48.3609 63.4455 48.361L63.4095 48.7903M63.4446 48.3609C63.4444 48.3609 63.4443 48.3609 63.4441 48.3608L63.4095 48.7903M63.4446 48.3609C65.082 48.493 66.5741 49.341 67.5441 50.6878M63.4095 48.7903C64.9193 48.912 66.2972 49.6937 67.1945 50.9396M67.5441 50.6878C67.5441 50.6878 67.544 50.6877 67.544 50.6877L67.1945 50.9396M67.5441 50.6878L67.1945 50.9396M53.6489 55.4672L54.0383 55.1125L53.5726 54.9539C53.6064 55.1222 53.632 55.2934 53.6489 55.4672ZM32.3078 23.5734L32.3078 23.5734L32.3017 23.573C31.2667 23.5149 30.2706 23.8762 29.5364 24.6128C28.8063 25.3453 28.4252 26.3537 28.498 27.3812C28.8158 31.8891 30.0784 35.2318 32.5368 37.4727C34.9185 39.6437 38.353 40.7162 42.9274 40.8984V43.5903C42.9274 44.3975 43.5823 45.0525 44.3896 45.0525C45.1968 45.0525 45.8518 44.3975 45.8518 43.5903V40.8984C50.4262 40.7162 53.8606 39.6437 56.2424 37.4729C58.7007 35.2324 59.9634 31.8902 60.2811 27.3833C60.3561 26.3532 59.9726 25.3426 59.2422 24.6123C58.504 23.8741 57.4937 23.5242 56.4829 23.5728L56.4829 23.5727L56.4734 23.5734C53.1623 23.8065 50.4807 24.549 48.4 25.9033C46.6068 27.0706 45.2844 28.6766 44.3898 30.7483C43.4958 28.6766 42.1734 27.0706 40.3802 25.9033C38.2995 24.549 35.6179 23.8065 32.3078 23.5734ZM57.3632 27.1725L57.363 27.1743C57.0944 31.0044 56.1043 33.6177 54.2402 35.3141C52.4412 36.9514 49.7535 37.8036 45.8828 37.9719C46.052 34.1011 46.9042 31.4139 48.5414 29.6151C50.2379 27.7513 52.8512 26.7612 56.6824 26.4915L56.7028 26.4901L56.7124 26.4885L56.7243 26.4885C56.8873 26.4885 57.0489 26.5541 57.1746 26.6799C57.3096 26.8149 57.3762 26.9964 57.3632 27.1725ZM31.4161 27.1742L31.416 27.1723C31.403 26.9988 31.4692 26.8173 31.6045 26.682C31.7273 26.5592 31.8888 26.4921 32.0493 26.4905L32.0562 26.4911L32.0571 26.4912C32.0628 26.4916 32.0729 26.4925 32.0836 26.4932C32.0911 26.4936 32.1 26.4941 32.1101 26.4944C35.9341 26.7641 38.5439 27.7541 40.2388 29.6164C41.876 31.4154 42.7282 34.1031 42.8965 37.9739C39.0258 37.8046 36.3385 36.9524 34.5398 35.3152C32.6759 33.6187 31.6858 31.0054 31.4161 27.1742Z" fill="#2A2B6B" stroke="#2A2B6B" stroke-width="0.861688"/>
</g>
</svg>
